<?xml version="1.0" encoding="UTF-8" standalone="no"?>
<svg
   xmlns:dc="http://purl.org/dc/elements/1.1/"
   xmlns:cc="http://creativecommons.org/ns#"
   xmlns:rdf="http://www.w3.org/1999/02/22-rdf-syntax-ns#"
   xmlns:svg="http://www.w3.org/2000/svg"
   xmlns="http://www.w3.org/2000/svg"
   id="svg8"
   version="1.1"
   viewBox="0 0 67.733332 67.733335"
   height="256"
   width="256">
  <defs
     id="defs2" />
  <metadata
     id="metadata5">
    <rdf:RDF>
      <cc:Work
         rdf:about="">
        <dc:format>image/svg+xml</dc:format>
        <dc:type
           rdf:resource="http://purl.org/dc/dcmitype/StillImage" />
        <dc:title></dc:title>
      </cc:Work>
    </rdf:RDF>
  </metadata>
  <g
     transform="translate(0,-229.26666)"
     id="layer1">
    <text
       id="text4593"
       y="296.33179"
       x="69.542656"
       style="font-style:normal;font-weight:normal;font-size:17.20426559px;line-height:1.25;font-family:sans-serif;letter-spacing:0px;word-spacing:0px;fill:#000000;fill-opacity:1;stroke:none;stroke-width:0.43010664"
       xml:space="preserve"><tspan
         style="font-style:normal;font-variant:normal;font-weight:normal;font-stretch:normal;font-size:82.58047485px;font-family:'Bauhaus 93';-inkscape-font-specification:'Bauhaus 93, ';stroke-width:0.43010664;"
         y="312.02777"
         x="69.542656"
         id="tspan4591" /></text>
    <g
       transform="rotate(-30,78.741967,507.84091)"
       id="g4675">
      <path
         style="opacity:1;fill:#1eb980;fill-opacity:1;stroke:none;stroke-width:3.10058618;stroke-miterlimit:4;stroke-dasharray:none;stroke-opacity:1;paint-order:stroke fill markers"
         d="m 162.2326,240.40736 a 33.072917,33.072917 0 0 0 -32.79231,29.10417 h 13.35061 a 19.84375,19.84375 0 0 1 19.4417,-15.875 19.84375,19.84375 0 0 1 19.42104,15.875 h 13.38575 A 33.072917,33.072917 0 0 0 162.2326,240.40736 Z m -32.80678,37.04167 a 33.072917,33.072917 0 0 0 32.80678,29.10416 33.072917,33.072917 0 0 0 32.79232,-29.10416 h -13.35061 a 19.84375,19.84375 0 0 1 -19.44171,15.875 19.84375,19.84375 0 0 1 -19.42103,-15.875 z"
         id="path4512-8" />
      <circle
         style="opacity:1;fill:#045d56;fill-opacity:1;stroke:none;stroke-width:1.24023449;stroke-miterlimit:4;stroke-dasharray:none;stroke-opacity:1;paint-order:stroke fill markers"
         id="path4512-2-6-0"
         cx="162.2326"
         cy="273.48026"
         r="13.229167" />
    </g>
    <flowRoot
       style="fill:black;fill-opacity:1;stroke:none;font-family:sans-serif;font-style:normal;font-weight:normal;font-size:40px;line-height:1.25;letter-spacing:0px;word-spacing:0px"
       id="flowRoot4712"
       xml:space="preserve"><flowRegion
         id="flowRegion4714"><rect
           y="1340.9038"
           x="-1042.4774"
           height="84.852814"
           width="1090.9647"
           id="rect4716" /></flowRegion><flowPara
         id="flowPara4718"></flowPara></flowRoot>  </g>
</svg>
