<?xml version="1.0" encoding="UTF-8" standalone="no"?>
<svg
   xmlns:dc="http://purl.org/dc/elements/1.1/"
   xmlns:cc="http://creativecommons.org/ns#"
   xmlns:rdf="http://www.w3.org/1999/02/22-rdf-syntax-ns#"
   xmlns:svg="http://www.w3.org/2000/svg"
   xmlns="http://www.w3.org/2000/svg"
   id="svg8"
   version="1.1"
   viewBox="0 0 557.22179 68.64699"
   height="259.45319"
   width="2106.0352">
  <defs
     id="defs2" />
  <metadata
     id="metadata5">
    <rdf:RDF>
      <cc:Work
         rdf:about="">
        <dc:format>image/svg+xml</dc:format>
        <dc:type
           rdf:resource="http://purl.org/dc/dcmitype/StillImage" />
        <dc:title></dc:title>
      </cc:Work>
    </rdf:RDF>
  </metadata>
  <g
     transform="translate(-35.844459,-812.61334)"
     id="layer1">
    <text
       id="text4593"
       y="296.33179"
       x="69.542656"
       style="font-style:normal;font-weight:normal;font-size:17.20426559px;line-height:1.25;font-family:sans-serif;letter-spacing:0px;word-spacing:0px;fill:#000000;fill-opacity:1;stroke:none;stroke-width:0.43010664"
       xml:space="preserve"><tspan
         style="font-style:normal;font-variant:normal;font-weight:normal;font-stretch:normal;font-size:82.58047485px;font-family:'Bauhaus 93';-inkscape-font-specification:'Bauhaus 93, ';stroke-width:0.43010664"
         y="312.02777"
         x="69.542656"
         id="tspan4591" /></text>
    <flowRoot
       style="font-style:normal;font-weight:normal;font-size:40px;line-height:1.25;font-family:sans-serif;letter-spacing:0px;word-spacing:0px;fill:#000000;fill-opacity:1;stroke:none"
       id="flowRoot4712"
       xml:space="preserve"><flowRegion
         id="flowRegion4714"><rect
           y="1340.9038"
           x="-1042.4774"
           height="84.852814"
           width="1090.9647"
           id="rect4716" /></flowRegion><flowPara
         id="flowPara4718" /></flowRoot>    <g
       transform="translate(22.773582)"
       id="g4826">
      <g
         id="g4675-3-6"
         transform="rotate(-30,1205.9419,668.07789)">
        <path
           id="path4512-8-1-3"
           d="m 162.2326,240.40736 a 33.072917,33.072917 0 0 0 -32.79231,29.10417 h 13.35061 a 19.84375,19.84375 0 0 1 19.4417,-15.875 19.84375,19.84375 0 0 1 19.42104,15.875 h 13.38575 A 33.072917,33.072917 0 0 0 162.2326,240.40736 Z m -32.80678,37.04167 a 33.072917,33.072917 0 0 0 32.80678,29.10416 33.072917,33.072917 0 0 0 32.79232,-29.10416 h -13.35061 a 19.84375,19.84375 0 0 1 -19.44171,15.875 19.84375,19.84375 0 0 1 -19.42103,-15.875 z"
           style="opacity:1;fill:#1eb980;fill-opacity:1;stroke:none;stroke-width:3.10058618;stroke-miterlimit:4;stroke-dasharray:none;stroke-opacity:1;paint-order:stroke fill markers" />
        <circle
           r="13.229167"
           cy="273.48026"
           cx="162.2326"
           id="path4512-2-6-0-0-8"
           style="opacity:1;fill:#045d56;fill-opacity:1;stroke:none;stroke-width:1.24023449;stroke-miterlimit:4;stroke-dasharray:none;stroke-opacity:1;paint-order:stroke fill markers" />
      </g>
      <g
         id="text4679-9-5"
         style="font-style:normal;font-weight:normal;font-size:10.58333302px;line-height:1.25;font-family:sans-serif;letter-spacing:0px;word-spacing:0px;fill:#000000;fill-opacity:1;stroke:none;stroke-width:0.26458332"
         aria-label="G   tchi Arena">
        <path
           id="path4529"
           style="fill:#045d56;fill-opacity:1"
           d="m 43.813187,844.09979 h 17.998901 q 5.813599,7.20886 5.813599,15.20838 0,9.30175 -6.836792,15.62695 -6.790284,6.32519 -16.743164,6.32519 -12.929444,0 -21.952149,-9.81335 -9.022705,-9.81335 -9.022705,-23.90552 0,-14.13867 9.162232,-23.53344 9.20874,-9.39478 22.975341,-9.39478 4.697388,0 10.417969,1.90686 v 18.88257 q -4.464844,-2.0929 -8.139038,-2.0929 -6.650757,0 -10.883057,4.13929 -4.185791,4.13928 -4.185791,10.74353 0,6.74377 3.906739,10.69702 3.906738,3.95324 10.557495,3.95324 4.2323,0 4.2323,-2.46496 0,-1.86035 -2.790528,-1.86035 h -4.511352 z" />
        <path
           id="path4531"
           style="fill:#045d56;fill-opacity:1"
           d="m 160.96883,816.19452 v 17.76636 h 7.81347 v 18.37097 h -7.81347 q 0,5.53454 1.72082,7.62744 1.76734,2.0929 6.41821,2.0929 v 18.27795 q -1.34875,0.0465 -1.99987,0.0465 -5.90662,0 -11.16211,-2.74402 -5.20899,-2.74402 -8.37158,-7.44141 -3.99976,-5.99963 -3.99976,-15.906 v -38.0907 z" />
        <path
           id="path4533"
           style="fill:#045d56;fill-opacity:1"
           d="m 205.75679,858.33148 17.25476,-0.65112 q -0.74414,10.0459 -7.48791,16.51062 -6.74378,6.46472 -16.41761,6.46472 -10.23193,0 -17.30127,-7.11584 -7.02282,-7.11585 -7.02282,-17.4408 0,-9.81335 7.11584,-16.78967 7.11585,-6.97632 17.06873,-6.97632 8.69714,0 15.3479,5.48804 6.65075,5.48803 8.27856,13.99914 l -17.62683,0.65112 q -2.27893,-2.97656 -5.76709,-2.97656 -2.97656,0 -4.88342,1.95337 -1.90686,1.95337 -1.90686,4.92993 0,3.02307 1.99988,5.06946 2.04638,2.04639 5.06945,2.04639 4.41834,0 6.27869,-5.16248 z" />
        <path
           id="path4535"
           style="fill:#045d56;fill-opacity:1"
           d="m 248.07979,816.19452 v 19.39416 q 4.41833,-3.2091 8.83667,-3.2091 6.69726,0 10.604,4.83691 3.95325,4.83692 3.95325,13.06897 v 29.39356 h -17.39429 v -24.51014 q 0,-2.97656 -0.65112,-3.99975 -0.60462,-1.02319 -2.41846,-1.02319 -2.93005,0 -2.93005,4.32531 v 25.20777 H 230.6855 v -63.4845 z" />
        <path
           id="path4537"
           style="fill:#045d56;fill-opacity:1"
           d="m 299.05342,833.30975 v 46.36927 h -17.39429 v -46.36927 z m -8.65063,-20.69641 q 3.53466,0 6.09265,2.51148 2.60449,2.46496 2.60449,5.8601 0,3.62769 -2.46497,5.95313 -2.41845,2.32544 -6.23217,2.32544 -3.81372,0 -6.27869,-2.32544 -2.41846,-2.32544 -2.41846,-5.95313 0,-3.39514 2.55799,-5.8601 2.60449,-2.51148 6.13916,-2.51148 z" />
        <path
           id="path4539"
           style="fill:#1eb980;fill-opacity:1"
           d="m 357.51497,847.8205 v 16.74316 h -5.44153 v 15.11536 h -18.88257 v -40.36963 q 0,-11.72022 6.37171,-18.18494 6.41821,-6.51123 17.9989,-6.51123 11.16211,0 16.51062,5.90662 5.34851,5.8601 5.34851,18.13842 v 41.02076 H 360.53804 V 839.914 q 0,-3.7207 -0.88367,-5.16247 -0.88366,-1.44178 -3.16259,-1.44178 -4.41834,0 -4.41834,6.60425 v 7.9065 z" />
        <path
           id="path4541"
           style="fill:#1eb980;fill-opacity:1"
           d="m 414.99983,832.84467 v 18.60351 q -1.81384,-1.02319 -3.30212,-1.02319 -4.7439,0 -4.7439,7.25537 v 21.99866 h -17.39429 v -25.34729 q 0,-10.0459 5.48804,-15.99903 5.48804,-5.99963 14.65027,-5.99963 2.04639,0 5.302,0.5116 z" />
        <path
           id="path4543"
           style="fill:#1eb980;fill-opacity:1"
           d="m 465.6479,859.30817 h -26.37048 q -0.60461,-1.99988 -0.60461,-3.6742 0,-2.32544 0.83715,-4.55786 h 8.83667 q -0.93017,-5.16247 -5.81359,-5.16247 -3.25562,0 -5.30201,2.79052 -2.04638,2.74402 -2.04638,7.06934 0,4.51135 1.95337,7.30188 1.99987,2.79053 5.20898,2.79053 2.60449,0 5.02295,-2.6045 l 9.90637,11.90625 q -6.92981,5.44153 -15.39441,5.44153 -10.32495,0 -17.34778,-6.92981 -7.02282,-6.92981 -7.02282,-17.16174 0,-10.18543 7.06933,-17.20825 7.11585,-7.02283 17.4408,-7.02283 10.09241,0 16.9292,6.8833 6.8833,6.83679 6.8833,16.88269 0,1.02319 -0.18604,3.25562 z" />
        <path
           id="path4545"
           style="fill:#1eb980;fill-opacity:1"
           d="M 514.24959,879.67902 H 496.8553 v -26.18445 q 0,-3.99976 -3.30212,-3.99976 -3.25562,0 -3.25562,3.99976 v 26.18445 h -17.39429 v -25.85889 q 0,-9.06921 5.99964,-15.25488 5.99963,-6.23218 14.69678,-6.23218 9.95288,0 15.95251,7.20886 4.69739,5.62756 4.69739,15.67346 z" />
        <path
           id="path4547"
           style="fill:#1eb980;fill-opacity:1"
           d="m 550.20088,862.28473 v 17.9989 q -2.1394,0.37207 -3.90674,0.37207 -10.46447,0 -17.44079,-6.8833 -6.97632,-6.8833 -6.97632,-17.25476 0,-10.09241 7.02283,-17.11524 7.06933,-7.02282 17.16174,-7.02282 11.25513,0 17.71985,6.60425 6.51123,6.55773 6.51123,17.95239 v 22.7428 h -17.39429 v -21.48706 q 0,-3.6742 -1.81384,-5.86011 -1.76734,-2.18591 -4.79041,-2.18591 -2.74401,0 -4.74389,1.99987 -1.99988,1.99988 -1.99988,4.7439 0,2.88354 1.81384,4.7439 1.81384,1.86035 4.60437,1.86035 2.27893,0 4.2323,-1.20923 z" />
      </g>
    </g>
  </g>
</svg>
